<?xml version="1.0" standalone="no"?><!DOCTYPE svg PUBLIC "-//W3C//DTD SVG 1.1//EN" "http://www.w3.org/Graphics/SVG/1.1/DTD/svg11.dtd"><svg t="1565010193998" class="icon" viewBox="0 0 1024 1024" version="1.1" xmlns="http://www.w3.org/2000/svg" p-id="2102" xmlns:xlink="http://www.w3.org/1999/xlink" width="200" height="200"><defs><style type="text/css"></style></defs><path d="M511.984098 867.109855c-66.788831 0-133.577663 0.159021-200.366494-0.031804-83.358822-0.254434-141.49691-58.805976-141.528714-142.387428-0.063608-128.807032-0.063608-257.614063 0-386.389291 0.031804-83.613256 58.964997-142.928099 142.737274-143.118924 131.987452-0.254434 263.974904-0.254434 395.930552 0 86.793676 0.190825 145.058981 59.028605 145.090785 145.88589 0.063608 128.26636 0.222629 256.53272-0.063608 384.799081-0.159021 70.096469-43.539957 124.290835-109.819921 138.761748-10.972451 2.385315-22.103923 2.258099-33.203591 2.480728h-198.776283z" fill="#123450" p-id="2103"></path><path d="M192.956114 760.947417c-4.039134-10.5908-4.325372-21.690468-4.325372-32.853744 0.031804-130.842501-0.127217-261.716806 0.095413-392.559306 0.095413-71.495854 50.664099-121.333043 122.44619-121.333044 135.104264 0 270.176725-0.031804 405.280989 0 66.788831 0 118.343448 51.840855 118.343448 118.947728 0 132.973383-0.031804 265.946765 0.095413 398.920148 0 11.258689-0.98593 22.135727-5.979191 32.408485-22.517377 45.670839-62.0182 66.916048-110.201571 67.583937-137.584992 1.844644-275.233593 1.049539-412.818586 0.38165-34.062304-0.159021-63.703823-13.866634-89.528838-35.970556-11.290493-9.700283-16.506383-23.121657-23.407895-35.525298z" fill="#EA5B5A" p-id="2104"></path><path d="M192.956114 760.947417c18.478243 27.288008 41.345467 49.23291 73.499519 59.601081 14.59813 4.707022 29.482498 7.569401 45.00295 7.537597 131.224151-0.159021 262.448303-0.413455 393.672454 0.095413 49.519148 0.190825 89.274404-17.651334 118.502469-57.979067 1.494798-2.067273 3.466658-3.848309 5.21589-5.756561-7.982856 39.309998-48.851259 76.552722-90.801006 82.690934-12.562661 1.844644-25.125322 2.735162-37.878809 2.735162-129.061465-0.159021-258.154735 0.127217-387.2162-0.190826-45.320993-0.127217-82.023046-17.842159-106.957543-56.80231-6.233624-9.795695-11.226884-20.259279-13.039724-31.931423z" fill="#B64544" p-id="2105"></path><path d="M386.421095 663.880983c-53.939932 0.190825-91.373482-27.860484-121.046805-68.760692-49.741777-68.569867-51.491008-158.353138-5.883778-229.880797 8.046464-12.594465 18.82809-12.117402 30.40482-10.558996 77.220611 10.431779 133.514054 49.709973 166.558623 121.110414 13.039724 28.146722 17.937572 58.297108 24.203001 88.383887 9.763891 46.943007-33.966891 95.221791-77.379632 98.434015-5.851974 0.445259-11.640339 0.890518-16.856229 1.272169zM797.140603 480.179893c-1.558406 65.707488-29.80054 118.184427-81.068919 158.0669-32.472094 25.252539-70.001056 31.327142-109.788117 21.277014-38.896543-9.827499-67.23409-48.056154-63.544803-87.493369 5.788365-61.668354 25.093518-117.993602 70.668945-162.392273 34.793801-33.935087 77.697674-50.091623 125.340373-55.43473 12.594465-1.399385 20.736342 2.671553 27.00177 14.121067 19.082523 34.921017 31.899618 71.368637 31.390751 111.855391z" fill="#123450" p-id="2106"></path><path d="M367.593006 560.262882c-31.358946 0.445259-59.155822-17.206075-69.65121-42.42681-2.766966-6.647079-4.070938-13.198745 0.699692-19.464174 5.120477-6.742492 11.831164-7.41038 19.845824-6.010995 25.188931 4.452589 46.275119 17.01525 66.407181 31.867814 6.583471 4.866043 12.658074 9.891108 10.877039 19.336957-1.908252 10.050129-9.795695 12.944312-18.287419 14.884368-4.134547 0.954126-8.300898 1.526602-9.891107 1.81284zM657.869988 561.153399c-5.851974-0.095413-11.481318-0.127217-17.206075-2.067273-8.141877-2.766966-14.184676-7.346771-15.584061-15.933907-1.272168-7.728422 3.816505-12.62627 9.573066-16.919837 20.863559-15.456844 42.522223-29.291673 68.538063-34.348542 8.905178-1.749231 18.192005-3.244029 24.425629 5.851974 5.661149 8.269093 1.971861 16.220145-1.97186 23.789546-14.184676 27.60605-37.974221 38.864739-67.774762 39.628039z" fill="#FFFFFF" p-id="2107"></path></svg>